{
  "accessors": [
    {
      "bufferView": 2,
      "componentType": 5126,
      "count": 46877,
      "max": [
        0.47688189148902893,
        0.39245638251304626,
        0.1026582419872284
      ],
      "min": [
        -0.3121134638786316,
        -0.347275048494339,
        -0.08531013131141663
      ],
      "type": "VEC3"
    },
    {
      "bufferView": 2,
      "byteOffset": 562524,
      "componentType": 5126,
      "count": 46877,
      "max": [
        0.9999088644981384,
        0.9997411370277405,
        0.9999998211860657
      ],
      "min": [
        -0.9997455477714539,
        -0.9996100664138794,
        -1.0
      ],
      "type": "VEC3"
    },
    {
      "bufferView": 1,
      "componentType": 5126,
      "count": 46877,
      "max": [
        0.9995483160018921,
        0.9995313882827759
      ],
      "min": [
        0.00047597434604540467,
        0.003690779209136963
      ],
      "type": "VEC2"
    },
    {
      "bufferView": 0,
      "componentType": 5125,
      "count": 47397,
      "type": "SCALAR"
    }
  ],
  "asset": {
    "extras": {
      "author": "Dom S (https://sketchfab.com/dominiksubocz)",
      "license": "SKETCHFAB Standard (https://sketchfab.com/licenses)",
      "source": "https://sketchfab.com/3d-models/dead-mouse-e28f6ceb4dcb4bebbef9f9a9ba69164d",
      "title": "Dead Mouse"
    },
    "generator": "Sketchfab-16.28.0",
    "version": "2.0"
  },
  "bufferViews": [
    {
      "buffer": 0,
      "byteLength": 189588,
      "name": "floatBufferViews",
      "target": 34963
    },
    {
      "buffer": 0,
      "byteLength": 375016,
      "byteOffset": 189588,
      "byteStride": 8,
      "name": "floatBufferViews",
      "target": 34962
    },
    {
      "buffer": 0,
      "byteLength": 1125048,
      "byteOffset": 564604,
      "byteStride": 12,
      "name": "floatBufferViews",
      "target": 34962
    }
  ],
  "buffers": [
    {
      "byteLength": 1689652,
      "uri": "scene.bin"
    }
  ],
  "images": [
    {
      "uri": "textures/Material_0_baseColor.jpeg"
    }
  ],
  "materials": [
    {
      "doubleSided": true,
      "name": "Material_0",
      "pbrMetallicRoughness": {
        "baseColorTexture": {
          "index": 0
        },
        "metallicFactor": 0.0
      }
    }
  ],
  "meshes": [
    {
      "name": "Mesh_0_Material_0_0",
      "primitives": [
        {
          "attributes": {
            "NORMAL": 1,
            "POSITION": 0,
            "TEXCOORD_0": 2
          },
          "indices": 3,
          "material": 0,
          "mode": 4
        }
      ]
    }
  ],
  "nodes": [
    {
      "children": [
        1
      ],
      "matrix": [
        1.0,
        0.0,
        0.0,
        0.0,
        0.0,
        2.220446049250313e-16,
        -1.0,
        0.0,
        0.0,
        1.0,
        2.220446049250313e-16,
        0.0,
        0.0,
        0.0,
        0.0,
        1.0
      ],
      "name": "Sketchfab_model"
    },
    {
      "children": [
        2
      ],
      "matrix": [
        0.009999999776482582,
        0.0,
        0.0,
        0.0,
        0.0,
        0.0,
        0.009999999776482582,
        0.0,
        0.0,
        -0.009999999776482582,
        0.0,
        0.0,
        0.0,
        0.0,
        0.0,
        1.0
      ],
      "name": "dead mouse.fbx"
    },
    {
      "children": [
        3
      ],
      "name": "RootNode"
    },
    {
      "children": [
        4
      ],
      "matrix": [
        82.59994825450481,
        2.486311341096671e-06,
        -56.36710099190917,
        0.0,
        -56.36710099190895,
        -6.0678251500886764e-06,
        -82.59994825450477,
        0.0,
        -5.473948166967446e-06,
        99.9999999999998,
        -3.610558252375995e-06,
        0.0,
        -0.9135459661483765,
        8.48600959777832,
        -0.10572545230388641,
        1.0
      ],
      "name": "Mesh_0"
    },
    {
      "mesh": 0,
      "name": "Mesh_0_Material_0_0"
    }
  ],
  "samplers": [
    {
      "magFilter": 9729,
      "minFilter": 9987,
      "wrapS": 10497,
      "wrapT": 10497
    }
  ],
  "scene": 0,
  "scenes": [
    {
      "name": "Sketchfab_Scene",
      "nodes": [
        0
      ]
    }
  ],
  "textures": [
    {
      "sampler": 0,
      "source": 0
    }
  ]
}
